<?xml version="1.0" encoding="UTF-8" standalone="no"?>
<!-- Created with FreeCAD (http://www.freecadweb.org) -->
<svg xmlns="http://www.w3.org/2000/svg"
     xmlns:xlink="http://www.w3.org/1999/xlink" xmlns:ev="http://www.w3.org/2001/xml-events"
     version="1.1" baseProfile="full"
     width="277" height="190">
<g>
</g>
<path
   d="M 10,10 L 267,10 L 267,180 L 10,180 L 10,10 z "
   style="fill:#ffffff;fill-opacity:1;fill-rule:evenodd;stroke:none;stroke-width:1px;stroke-linecap:butt;stroke-linejoin:miter;stroke-opacity:1" />
<g>
<line x1="157.251" y1="95.4803" x2="157.251" y2="66.2241" stroke="#191919" stroke-width="1px" />
<line x1="127.693" y1="112.546" x2="157.251" y2="95.4803" stroke="#191919" stroke-width="1px" />
<line x1="157.251" y1="95.4803" x2="186.809" y2="112.546" stroke="#191919" stroke-width="1px" />
<path d="M 142.11,91.6142 L 141.567,92.5026 157.251,95.4803 z"
    style="fill:#686868; stroke:#686868;
    stroke-width:1.0;
    stroke-linecap:round;stroke-linejoin:round"/>
<path d="M 142.608,90.6995 L 142.11,91.6142 157.251,95.4803 z"
    style="fill:#686868; stroke:#686868;
    stroke-width:1.0;
    stroke-linecap:round;stroke-linejoin:round"/>
<path d="M 141.567,92.5026 L 140.982,93.3579 157.251,95.4803 z"
    style="fill:#686868; stroke:#686868;
    stroke-width:1.0;
    stroke-linecap:round;stroke-linejoin:round"/>
<path d="M 143.056,89.7656 L 142.608,90.6995 157.251,95.4803 z"
    style="fill:#686868; stroke:#686868;
    stroke-width:1.0;
    stroke-linecap:round;stroke-linejoin:round"/>
<path d="M 143.452,88.8196 L 143.056,89.7656 157.251,95.4803 z"
    style="fill:#686868; stroke:#686868;
    stroke-width:1.0;
    stroke-linecap:round;stroke-linejoin:round"/>
<path d="M 140.982,93.3579 L 140.361,94.1738 157.251,95.4803 z"
    style="fill:#686868; stroke:#686868;
    stroke-width:1.0;
    stroke-linecap:round;stroke-linejoin:round"/>
<path d="M 140.361,94.1738 L 139.707,94.944 157.251,95.4803 z"
    style="fill:#686868; stroke:#686868;
    stroke-width:1.0;
    stroke-linecap:round;stroke-linejoin:round"/>
<path d="M 143.792,87.8685 L 143.452,88.8196 157.251,95.4803 z"
    style="fill:#686868; stroke:#686868;
    stroke-width:1.0;
    stroke-linecap:round;stroke-linejoin:round"/>
<path d="M 157.251,66.2241 L 144.455,85.0578 157.251,95.4803 z"
    style="fill:#686868; stroke:#686868;
    stroke-width:1.0;
    stroke-linecap:round;stroke-linejoin:round"/>
<path d="M 139.707,94.944 L 139.027,95.6625 157.251,95.4803 z"
    style="fill:#686868; stroke:#686868;
    stroke-width:1.0;
    stroke-linecap:round;stroke-linejoin:round"/>
<path d="M 144.074,86.9197 L 143.792,87.8685 157.251,95.4803 z"
    style="fill:#686868; stroke:#686868;
    stroke-width:1.0;
    stroke-linecap:round;stroke-linejoin:round"/>
<path d="M 139.027,95.6625 L 138.324,96.3241 157.251,95.4803 z"
    style="fill:#686868; stroke:#686868;
    stroke-width:1.0;
    stroke-linecap:round;stroke-linejoin:round"/>
<path d="M 144.296,85.9804 L 144.074,86.9197 157.251,95.4803 z"
    style="fill:#686868; stroke:#686868;
    stroke-width:1.0;
    stroke-linecap:round;stroke-linejoin:round"/>
<path d="M 157.251,66.2241 L 157.251,95.4803 178.364,97.9184 z"
    style="fill:#858585; stroke:#858585;
    stroke-width:1.0;
    stroke-linecap:round;stroke-linejoin:round"/>
<path d="M 144.455,85.0578 L 144.296,85.9804 157.251,95.4803 z"
    style="fill:#686868; stroke:#686868;
    stroke-width:1.0;
    stroke-linecap:round;stroke-linejoin:round"/>
<path d="M 138.324,96.3241 L 127.693,112.546 157.251,95.4803 z"
    style="fill:#686868; stroke:#686868;
    stroke-width:1.0;
    stroke-linecap:round;stroke-linejoin:round"/>
<path d="M 127.693,112.546 L 186.809,112.546 157.251,95.4803 z"
    style="fill:#8f8f8f; stroke:#8f8f8f;
    stroke-width:1.0;
    stroke-linecap:round;stroke-linejoin:round"/>
<path d="M 178.364,97.9184 L 157.251,95.4803 186.809,112.546 z"
    style="fill:#858585; stroke:#858585;
    stroke-width:1.0;
    stroke-linecap:round;stroke-linejoin:round"/>
<line x1="142.11" y1="91.6142" x2="142.608" y2="90.6995" stroke="#191919" stroke-width="1px" />
<line x1="141.567" y1="92.5026" x2="142.11" y2="91.6142" stroke="#191919" stroke-width="1px" />
<line x1="140.982" y1="93.3579" x2="141.567" y2="92.5026" stroke="#191919" stroke-width="1px" />
<line x1="142.608" y1="90.6995" x2="143.056" y2="89.7656" stroke="#191919" stroke-width="1px" />
<line x1="140.361" y1="94.1738" x2="140.982" y2="93.3579" stroke="#191919" stroke-width="1px" />
<line x1="143.056" y1="89.7656" x2="143.452" y2="88.8196" stroke="#191919" stroke-width="1px" />
<line x1="139.707" y1="94.944" x2="140.361" y2="94.1738" stroke="#191919" stroke-width="1px" />
<line x1="143.452" y1="88.8196" x2="143.792" y2="87.8685" stroke="#191919" stroke-width="1px" />
<line x1="143.792" y1="87.8685" x2="144.074" y2="86.9197" stroke="#191919" stroke-width="1px" />
<line x1="139.027" y1="95.6625" x2="139.707" y2="94.944" stroke="#191919" stroke-width="1px" />
<line x1="138.324" y1="96.3241" x2="139.027" y2="95.6625" stroke="#191919" stroke-width="1px" />
<line x1="144.074" y1="86.9197" x2="144.296" y2="85.9804" stroke="#191919" stroke-width="1px" />
<path d="M 144.551,84.1588 L 144.455,85.0578 157.251,66.2241 z"
    style="fill:#686868; stroke:#686868;
    stroke-width:1.0;
    stroke-linecap:round;stroke-linejoin:round"/>
<path d="M 144.583,83.2903 L 144.551,84.1588 157.251,66.2241 z"
    style="fill:#686868; stroke:#686868;
    stroke-width:1.0;
    stroke-linecap:round;stroke-linejoin:round"/>
<line x1="144.296" y1="85.9804" x2="144.455" y2="85.0578" stroke="#191919" stroke-width="1px" />
<line x1="137.605" y1="96.9235" x2="138.324" y2="96.3241" stroke="#191919" stroke-width="1px" />
<path d="M 137.605,96.9235 L 127.693,112.546 138.324,96.3241 z"
    style="fill:#686868; stroke:#686868;
    stroke-width:1.0;
    stroke-linecap:round;stroke-linejoin:round"/>
<line x1="136.874" y1="97.4563" x2="137.605" y2="96.9235" stroke="#191919" stroke-width="1px" />
<line x1="144.455" y1="85.0578" x2="144.551" y2="84.1588" stroke="#191919" stroke-width="1px" />
<path d="M 136.874,97.4563 L 127.693,112.546 137.605,96.9235 z"
    style="fill:#686868; stroke:#686868;
    stroke-width:1.0;
    stroke-linecap:round;stroke-linejoin:round"/>
<line x1="136.138" y1="97.9184" x2="136.874" y2="97.4563" stroke="#191919" stroke-width="1px" />
<line x1="144.551" y1="84.1588" x2="144.583" y2="83.2903" stroke="#191919" stroke-width="1px" />
<path d="M 136.138,97.9184 L 127.693,112.546 136.874,97.4563 z"
    style="fill:#686868; stroke:#686868;
    stroke-width:1.0;
    stroke-linecap:round;stroke-linejoin:round"/>
<line x1="157.251" y1="105.232" x2="161.474" y2="97.9184" stroke="#191919" stroke-width="1px" />
<path d="M 154.777,98.9282 L 142.11,91.6142 142.608,90.6995 z"
    style="fill:#bebebe; stroke:#bebebe;
    stroke-width:1.0;
    stroke-linecap:round;stroke-linejoin:round"/>
<path d="M 154.777,98.9282 L 141.567,92.5026 142.11,91.6142 z"
    style="fill:#bfbfbf; stroke:#bfbfbf;
    stroke-width:1.0;
    stroke-linecap:round;stroke-linejoin:round"/>
<path d="M 154.234,99.8166 L 140.982,93.3579 141.567,92.5026 z"
    style="fill:#bfbfbf; stroke:#bfbfbf;
    stroke-width:1.0;
    stroke-linecap:round;stroke-linejoin:round"/>
<path d="M 155.724,97.0797 L 142.608,90.6995 143.056,89.7656 z"
    style="fill:#bababa; stroke:#bababa;
    stroke-width:1.0;
    stroke-linecap:round;stroke-linejoin:round"/>
<path d="M 156.12,96.1336 L 143.056,89.7656 143.452,88.8196 z"
    style="fill:#b6b6b6; stroke:#b6b6b6;
    stroke-width:1.0;
    stroke-linecap:round;stroke-linejoin:round"/>
<path d="M 153.028,101.488 L 140.361,94.1738 140.982,93.3579 z"
    style="fill:#bebebe; stroke:#bebebe;
    stroke-width:1.0;
    stroke-linecap:round;stroke-linejoin:round"/>
<path d="M 153.028,101.488 L 139.707,94.944 140.361,94.1738 z"
    style="fill:#bbbbbb; stroke:#bbbbbb;
    stroke-width:1.0;
    stroke-linecap:round;stroke-linejoin:round"/>
<path d="M 156.46,95.1826 L 143.452,88.8196 143.792,87.8685 z"
    style="fill:#b1b1b1; stroke:#b1b1b1;
    stroke-width:1.0;
    stroke-linecap:round;stroke-linejoin:round"/>
<path d="M 144.583,73.5382 L 144.583,83.2903 157.251,66.2241 z"
    style="fill:#686868; stroke:#686868;
    stroke-width:1.0;
    stroke-linecap:round;stroke-linejoin:round"/>
<path d="M 152.375,102.258 L 139.027,95.6625 139.707,94.944 z"
    style="fill:#b7b7b7; stroke:#b7b7b7;
    stroke-width:1.0;
    stroke-linecap:round;stroke-linejoin:round"/>
<path d="M 156.742,94.2338 L 143.792,87.8685 144.074,86.9197 z"
    style="fill:#aaaaaa; stroke:#aaaaaa;
    stroke-width:1.0;
    stroke-linecap:round;stroke-linejoin:round"/>
<path d="M 151.694,102.977 L 138.324,96.3241 139.027,95.6625 z"
    style="fill:#b2b2b2; stroke:#b2b2b2;
    stroke-width:1.0;
    stroke-linecap:round;stroke-linejoin:round"/>
<line x1="144.583" y1="73.5382" x2="157.251" y2="66.2241" stroke="#191919" stroke-width="1px" />
<path d="M 156.963,93.2945 L 144.074,86.9197 144.296,85.9804 z"
    style="fill:#a2a2a2; stroke:#a2a2a2;
    stroke-width:1.0;
    stroke-linecap:round;stroke-linejoin:round"/>
<path d="M 150.992,103.638 L 137.605,96.9235 138.324,96.3241 z"
    style="fill:#acacac; stroke:#acacac;
    stroke-width:1.0;
    stroke-linecap:round;stroke-linejoin:round"/>
<path d="M 157.123,92.3718 L 144.296,85.9804 144.455,85.0578 z"
    style="fill:#9a9a9a; stroke:#9a9a9a;
    stroke-width:1.0;
    stroke-linecap:round;stroke-linejoin:round"/>
<path d="M 136.138,97.9184 L 127.693,102.794 127.693,112.546 z"
    style="fill:#686868; stroke:#686868;
    stroke-width:1.0;
    stroke-linecap:round;stroke-linejoin:round"/>
<path d="M 157.251,105.232 L 161.474,97.9184 169.919,102.794 z"
    style="fill:#bfbfbf; stroke:#bfbfbf;
    stroke-width:1.0;
    stroke-linecap:round;stroke-linejoin:round"/>
<path d="M 186.809,102.794 L 178.364,97.9184 186.809,112.546 z"
    style="fill:#858585; stroke:#858585;
    stroke-width:1.0;
    stroke-linecap:round;stroke-linejoin:round"/>
<path d="M 157.251,105.232 L 154.777,98.9282 161.474,97.9184 z"
    style="fill:#686868; stroke:#686868;
    stroke-width:1.0;
    stroke-linecap:round;stroke-linejoin:round"/>
<path d="M 150.272,104.238 L 136.874,97.4563 137.605,96.9235 z"
    style="fill:#a4a4a4; stroke:#a4a4a4;
    stroke-width:1.0;
    stroke-linecap:round;stroke-linejoin:round"/>
<path d="M 157.123,92.3718 L 144.455,85.0578 144.551,84.1588 z"
    style="fill:#909090; stroke:#909090;
    stroke-width:1.0;
    stroke-linecap:round;stroke-linejoin:round"/>
<path d="M 149.542,104.77 L 136.138,97.9184 136.874,97.4563 z"
    style="fill:#9b9b9b; stroke:#9b9b9b;
    stroke-width:1.0;
    stroke-linecap:round;stroke-linejoin:round"/>
<path d="M 157.251,90.6043 L 144.551,84.1588 144.583,83.2903 z"
    style="fill:#8b8b8b; stroke:#8b8b8b;
    stroke-width:1.0;
    stroke-linecap:round;stroke-linejoin:round"/>
<line x1="127.693" y1="112.546" x2="127.693" y2="102.794" stroke="#191919" stroke-width="1px" />
<line x1="136.138" y1="97.9184" x2="127.693" y2="102.794" stroke="#191919" stroke-width="1px" />
<line x1="144.583" y1="73.5382" x2="144.583" y2="83.2903" stroke="#191919" stroke-width="1px" />
<line x1="161.474" y1="97.9184" x2="169.919" y2="102.794" stroke="#191919" stroke-width="1px" />
<path d="M 178.364,78.4142 L 157.251,66.2241 178.364,97.9184 z"
    style="fill:#858585; stroke:#858585;
    stroke-width:1.0;
    stroke-linecap:round;stroke-linejoin:round"/>
<line x1="169.919" y1="102.794" x2="178.364" y2="97.9184" stroke="#191919" stroke-width="1px" />
<line x1="178.364" y1="97.9184" x2="186.809" y2="102.794" stroke="#191919" stroke-width="1px" />
<line x1="186.809" y1="112.546" x2="186.809" y2="102.794" stroke="#191919" stroke-width="1px" />
<path d="M 155.275,98.0136 L 154.777,98.9282 142.608,90.6995 z"
    style="fill:#bebebe; stroke:#bebebe;
    stroke-width:1.0;
    stroke-linecap:round;stroke-linejoin:round"/>
<path d="M 154.777,98.9282 L 154.234,99.8166 141.567,92.5026 z"
    style="fill:#bfbfbf; stroke:#bfbfbf;
    stroke-width:1.0;
    stroke-linecap:round;stroke-linejoin:round"/>
<path d="M 155.724,97.0797 L 155.275,98.0136 142.608,90.6995 z"
    style="fill:#bebebe; stroke:#bebebe;
    stroke-width:1.0;
    stroke-linecap:round;stroke-linejoin:round"/>
<path d="M 154.234,99.8166 L 153.65,100.672 140.982,93.3579 z"
    style="fill:#bebebe; stroke:#bebebe;
    stroke-width:1.0;
    stroke-linecap:round;stroke-linejoin:round"/>
<path d="M 156.12,96.1336 L 155.724,97.0797 143.056,89.7656 z"
    style="fill:#bababa; stroke:#bababa;
    stroke-width:1.0;
    stroke-linecap:round;stroke-linejoin:round"/>
<path d="M 153.65,100.672 L 153.028,101.488 140.982,93.3579 z"
    style="fill:#bebebe; stroke:#bebebe;
    stroke-width:1.0;
    stroke-linecap:round;stroke-linejoin:round"/>
<path d="M 156.46,95.1826 L 156.12,96.1336 143.452,88.8196 z"
    style="fill:#b6b6b6; stroke:#b6b6b6;
    stroke-width:1.0;
    stroke-linecap:round;stroke-linejoin:round"/>
<path d="M 153.028,101.488 L 152.375,102.258 139.707,94.944 z"
    style="fill:#b7b7b7; stroke:#b7b7b7;
    stroke-width:1.0;
    stroke-linecap:round;stroke-linejoin:round"/>
<path d="M 169.919,102.794 L 178.364,97.9184 186.809,102.794 z"
    style="fill:#8f8f8f; stroke:#8f8f8f;
    stroke-width:1.0;
    stroke-linecap:round;stroke-linejoin:round"/>
<path d="M 156.742,94.2338 L 156.46,95.1826 143.792,87.8685 z"
    style="fill:#b1b1b1; stroke:#b1b1b1;
    stroke-width:1.0;
    stroke-linecap:round;stroke-linejoin:round"/>
<path d="M 152.375,102.258 L 151.694,102.977 139.027,95.6625 z"
    style="fill:#b2b2b2; stroke:#b2b2b2;
    stroke-width:1.0;
    stroke-linecap:round;stroke-linejoin:round"/>
<path d="M 154.777,98.9282 L 155.275,98.0136 161.474,97.9184 z"
    style="fill:#686868; stroke:#686868;
    stroke-width:1.0;
    stroke-linecap:round;stroke-linejoin:round"/>
<path d="M 157.251,105.232 L 154.234,99.8166 154.777,98.9282 z"
    style="fill:#686868; stroke:#686868;
    stroke-width:1.0;
    stroke-linecap:round;stroke-linejoin:round"/>
<path d="M 157.251,105.232 L 153.65,100.672 154.234,99.8166 z"
    style="fill:#686868; stroke:#686868;
    stroke-width:1.0;
    stroke-linecap:round;stroke-linejoin:round"/>
<path d="M 155.275,98.0136 L 155.724,97.0797 161.474,97.9184 z"
    style="fill:#686868; stroke:#686868;
    stroke-width:1.0;
    stroke-linecap:round;stroke-linejoin:round"/>
<path d="M 156.963,93.2945 L 156.742,94.2338 144.074,86.9197 z"
    style="fill:#aaaaaa; stroke:#aaaaaa;
    stroke-width:1.0;
    stroke-linecap:round;stroke-linejoin:round"/>
<path d="M 157.251,105.232 L 153.028,101.488 153.65,100.672 z"
    style="fill:#686868; stroke:#686868;
    stroke-width:1.0;
    stroke-linecap:round;stroke-linejoin:round"/>
<path d="M 155.724,97.0797 L 156.12,96.1336 161.474,97.9184 z"
    style="fill:#686868; stroke:#686868;
    stroke-width:1.0;
    stroke-linecap:round;stroke-linejoin:round"/>
<line x1="157.251" y1="90.6043" x2="144.583" y2="83.2903" stroke="#191919" stroke-width="1px" />
<line x1="148.806" y1="105.232" x2="136.138" y2="97.9184" stroke="#191919" stroke-width="1px" />
<line x1="157.251" y1="66.2241" x2="178.364" y2="78.4142" stroke="#191919" stroke-width="1px" />
<path d="M 151.694,102.977 L 150.992,103.638 138.324,96.3241 z"
    style="fill:#acacac; stroke:#acacac;
    stroke-width:1.0;
    stroke-linecap:round;stroke-linejoin:round"/>
<path d="M 157.251,105.232 L 152.375,102.258 153.028,101.488 z"
    style="fill:#686868; stroke:#686868;
    stroke-width:1.0;
    stroke-linecap:round;stroke-linejoin:round"/>
<path d="M 156.12,96.1336 L 156.46,95.1826 161.474,97.9184 z"
    style="fill:#686868; stroke:#686868;
    stroke-width:1.0;
    stroke-linecap:round;stroke-linejoin:round"/>
<path d="M 161.474,97.9184 L 156.46,95.1826 156.742,94.2338 z"
    style="fill:#686868; stroke:#686868;
    stroke-width:1.0;
    stroke-linecap:round;stroke-linejoin:round"/>
<path d="M 157.251,105.232 L 151.694,102.977 152.375,102.258 z"
    style="fill:#686868; stroke:#686868;
    stroke-width:1.0;
    stroke-linecap:round;stroke-linejoin:round"/>
<path d="M 157.123,92.3718 L 156.963,93.2945 144.296,85.9804 z"
    style="fill:#a2a2a2; stroke:#a2a2a2;
    stroke-width:1.0;
    stroke-linecap:round;stroke-linejoin:round"/>
<path d="M 150.992,103.638 L 150.272,104.238 137.605,96.9235 z"
    style="fill:#a4a4a4; stroke:#a4a4a4;
    stroke-width:1.0;
    stroke-linecap:round;stroke-linejoin:round"/>
<path d="M 161.474,97.9184 L 156.742,94.2338 156.963,93.2945 z"
    style="fill:#686868; stroke:#686868;
    stroke-width:1.0;
    stroke-linecap:round;stroke-linejoin:round"/>
<path d="M 150.992,103.638 L 151.694,102.977 157.251,105.232 z"
    style="fill:#686868; stroke:#686868;
    stroke-width:1.0;
    stroke-linecap:round;stroke-linejoin:round"/>
<path d="M 144.583,73.5382 L 157.251,66.2241 161.474,78.4142 z"
    style="fill:#8f8f8f; stroke:#8f8f8f;
    stroke-width:1.0;
    stroke-linecap:round;stroke-linejoin:round"/>
<path d="M 144.583,83.2903 L 144.583,73.5382 157.251,90.6043 z"
    style="fill:#858585; stroke:#858585;
    stroke-width:1.0;
    stroke-linecap:round;stroke-linejoin:round"/>
<path d="M 150.272,104.238 L 150.992,103.638 157.251,105.232 z"
    style="fill:#686868; stroke:#686868;
    stroke-width:1.0;
    stroke-linecap:round;stroke-linejoin:round"/>
<path d="M 161.474,97.9184 L 156.963,93.2945 157.123,92.3718 z"
    style="fill:#686868; stroke:#686868;
    stroke-width:1.0;
    stroke-linecap:round;stroke-linejoin:round"/>
<path d="M 157.219,91.4728 L 157.123,92.3718 144.551,84.1588 z"
    style="fill:#909090; stroke:#909090;
    stroke-width:1.0;
    stroke-linecap:round;stroke-linejoin:round"/>
<path d="M 150.272,104.238 L 149.542,104.77 136.874,97.4563 z"
    style="fill:#9b9b9b; stroke:#9b9b9b;
    stroke-width:1.0;
    stroke-linecap:round;stroke-linejoin:round"/>
<path d="M 149.542,104.77 L 150.272,104.238 157.251,105.232 z"
    style="fill:#686868; stroke:#686868;
    stroke-width:1.0;
    stroke-linecap:round;stroke-linejoin:round"/>
<path d="M 161.474,97.9184 L 157.123,92.3718 157.219,91.4728 z"
    style="fill:#686868; stroke:#686868;
    stroke-width:1.0;
    stroke-linecap:round;stroke-linejoin:round"/>
<path d="M 157.251,90.6043 L 157.219,91.4728 144.551,84.1588 z"
    style="fill:#909090; stroke:#909090;
    stroke-width:1.0;
    stroke-linecap:round;stroke-linejoin:round"/>
<path d="M 149.542,104.77 L 148.806,105.232 136.138,97.9184 z"
    style="fill:#959595; stroke:#959595;
    stroke-width:1.0;
    stroke-linecap:round;stroke-linejoin:round"/>
<path d="M 148.806,105.232 L 149.542,104.77 157.251,105.232 z"
    style="fill:#686868; stroke:#686868;
    stroke-width:1.0;
    stroke-linecap:round;stroke-linejoin:round"/>
<path d="M 161.474,97.9184 L 157.219,91.4728 157.251,90.6043 z"
    style="fill:#686868; stroke:#686868;
    stroke-width:1.0;
    stroke-linecap:round;stroke-linejoin:round"/>
<path d="M 127.693,102.794 L 140.361,114.984 127.693,112.546 z"
    style="fill:#858585; stroke:#858585;
    stroke-width:1.0;
    stroke-linecap:round;stroke-linejoin:round"/>
<line x1="140.361" y1="114.984" x2="157.251" y2="105.232" stroke="#191919" stroke-width="1px" />
<path d="M 157.251,105.232 L 169.919,102.794 174.141,114.984 z"
    style="fill:#bfbfbf; stroke:#bfbfbf;
    stroke-width:1.0;
    stroke-linecap:round;stroke-linejoin:round"/>
<line x1="161.474" y1="78.4142" x2="161.474" y2="97.9184" stroke="#191919" stroke-width="1px" />
<line x1="178.364" y1="78.4142" x2="178.364" y2="97.9184" stroke="#191919" stroke-width="1px" />
<path d="M 178.364,107.67 L 186.809,102.794 186.809,112.546 z"
    style="fill:#686868; stroke:#686868;
    stroke-width:1.0;
    stroke-linecap:round;stroke-linejoin:round"/>
<line x1="157.251" y1="105.232" x2="174.141" y2="114.984" stroke="#191919" stroke-width="1px" />
<path d="M 178.364,97.9184 L 169.919,102.794 178.364,78.4142 z"
    style="fill:#686868; stroke:#686868;
    stroke-width:1.0;
    stroke-linecap:round;stroke-linejoin:round"/>
<line x1="154.777" y1="98.9282" x2="155.275" y2="98.0136" stroke="#191919" stroke-width="1px" />
<line x1="154.234" y1="99.8166" x2="154.777" y2="98.9282" stroke="#191919" stroke-width="1px" />
<line x1="155.275" y1="98.0136" x2="155.724" y2="97.0797" stroke="#191919" stroke-width="1px" />
<line x1="153.65" y1="100.672" x2="154.234" y2="99.8166" stroke="#191919" stroke-width="1px" />
<line x1="155.724" y1="97.0797" x2="156.12" y2="96.1336" stroke="#191919" stroke-width="1px" />
<line x1="153.028" y1="101.488" x2="153.65" y2="100.672" stroke="#191919" stroke-width="1px" />
<line x1="152.375" y1="102.258" x2="153.028" y2="101.488" stroke="#191919" stroke-width="1px" />
<line x1="156.12" y1="96.1336" x2="156.46" y2="95.1826" stroke="#191919" stroke-width="1px" />
<path d="M 127.693,102.794 L 136.138,97.9184 140.361,110.108 z"
    style="fill:#8f8f8f; stroke:#8f8f8f;
    stroke-width:1.0;
    stroke-linecap:round;stroke-linejoin:round"/>
<path d="M 157.251,129.613 L 186.809,112.546 127.693,112.546 z"
    style="fill:#8f8f8f; stroke:#8f8f8f;
    stroke-width:1.0;
    stroke-linecap:round;stroke-linejoin:round"/>
<path d="M 140.361,114.984 L 148.806,105.232 157.251,105.232 z"
    style="fill:#686868; stroke:#686868;
    stroke-width:1.0;
    stroke-linecap:round;stroke-linejoin:round"/>
<path d="M 161.474,78.4142 L 157.251,66.2241 178.364,78.4142 z"
    style="fill:#8f8f8f; stroke:#8f8f8f;
    stroke-width:1.0;
    stroke-linecap:round;stroke-linejoin:round"/>
<path d="M 161.474,97.9184 L 157.251,90.6043 161.474,78.4142 z"
    style="fill:#686868; stroke:#686868;
    stroke-width:1.0;
    stroke-linecap:round;stroke-linejoin:round"/>
<line x1="156.46" y1="95.1826" x2="156.742" y2="94.2338" stroke="#191919" stroke-width="1px" />
<line x1="151.694" y1="102.977" x2="152.375" y2="102.258" stroke="#191919" stroke-width="1px" />
<line x1="150.992" y1="103.638" x2="151.694" y2="102.977" stroke="#191919" stroke-width="1px" />
<line x1="156.742" y1="94.2338" x2="156.963" y2="93.2945" stroke="#191919" stroke-width="1px" />
<line x1="156.963" y1="93.2945" x2="157.123" y2="92.3718" stroke="#191919" stroke-width="1px" />
<line x1="150.272" y1="104.238" x2="150.992" y2="103.638" stroke="#191919" stroke-width="1px" />
<path d="M 140.361,110.108 L 136.138,97.9184 148.806,105.232 z"
    style="fill:#8f8f8f; stroke:#8f8f8f;
    stroke-width:1.0;
    stroke-linecap:round;stroke-linejoin:round"/>
<path d="M 140.361,114.984 L 157.251,105.232 174.141,114.984 z"
    style="fill:#8f8f8f; stroke:#8f8f8f;
    stroke-width:1.0;
    stroke-linecap:round;stroke-linejoin:round"/>
<path d="M 178.364,107.67 L 186.809,112.546 174.141,114.984 z"
    style="fill:#686868; stroke:#686868;
    stroke-width:1.0;
    stroke-linecap:round;stroke-linejoin:round"/>
<path d="M 169.919,102.794 L 161.474,97.9184 169.919,83.2903 z"
    style="fill:#858585; stroke:#858585;
    stroke-width:1.0;
    stroke-linecap:round;stroke-linejoin:round"/>
<path d="M 178.364,107.67 L 169.919,102.794 186.809,102.794 z"
    style="fill:#8f8f8f; stroke:#8f8f8f;
    stroke-width:1.0;
    stroke-linecap:round;stroke-linejoin:round"/>
<line x1="157.123" y1="92.3718" x2="157.219" y2="91.4728" stroke="#191919" stroke-width="1px" />
<line x1="149.542" y1="104.77" x2="150.272" y2="104.238" stroke="#191919" stroke-width="1px" />
<line x1="148.806" y1="105.232" x2="149.542" y2="104.77" stroke="#191919" stroke-width="1px" />
<line x1="157.219" y1="91.4728" x2="157.251" y2="90.6043" stroke="#191919" stroke-width="1px" />
<line x1="178.364" y1="107.67" x2="169.919" y2="102.794" stroke="#191919" stroke-width="1px" />
<line x1="186.809" y1="102.794" x2="178.364" y2="107.67" stroke="#191919" stroke-width="1px" />
<path d="M 174.141,114.984 L 169.919,102.794 178.364,107.67 z"
    style="fill:#bfbfbf; stroke:#bfbfbf;
    stroke-width:1.0;
    stroke-linecap:round;stroke-linejoin:round"/>
<path d="M 157.251,90.6043 L 144.583,73.5382 157.251,80.8522 z"
    style="fill:#858585; stroke:#858585;
    stroke-width:1.0;
    stroke-linecap:round;stroke-linejoin:round"/>
<path d="M 161.474,97.9184 L 161.474,78.4142 169.919,83.2903 z"
    style="fill:#858585; stroke:#858585;
    stroke-width:1.0;
    stroke-linecap:round;stroke-linejoin:round"/>
<line x1="127.693" y1="102.794" x2="140.361" y2="110.108" stroke="#191919" stroke-width="1px" />
<line x1="157.251" y1="129.613" x2="127.693" y2="112.546" stroke="#191919" stroke-width="1px" />
<line x1="157.251" y1="80.8522" x2="144.583" y2="73.5382" stroke="#191919" stroke-width="1px" />
<line x1="186.809" y1="112.546" x2="157.251" y2="129.613" stroke="#191919" stroke-width="1px" />
<path d="M 140.361,110.108 L 140.361,114.984 127.693,102.794 z"
    style="fill:#858585; stroke:#858585;
    stroke-width:1.0;
    stroke-linecap:round;stroke-linejoin:round"/>
<path d="M 140.361,114.984 L 157.251,129.613 127.693,112.546 z"
    style="fill:#858585; stroke:#858585;
    stroke-width:1.0;
    stroke-linecap:round;stroke-linejoin:round"/>
<path d="M 157.251,80.8522 L 144.583,73.5382 161.474,78.4142 z"
    style="fill:#8f8f8f; stroke:#8f8f8f;
    stroke-width:1.0;
    stroke-linecap:round;stroke-linejoin:round"/>
<path d="M 174.141,114.984 L 186.809,112.546 157.251,129.613 z"
    style="fill:#686868; stroke:#686868;
    stroke-width:1.0;
    stroke-linecap:round;stroke-linejoin:round"/>
<line x1="140.361" y1="110.108" x2="148.806" y2="105.232" stroke="#191919" stroke-width="1px" />
<path d="M 140.361,114.984 L 140.361,110.108 148.806,105.232 z"
    style="fill:#686868; stroke:#686868;
    stroke-width:1.0;
    stroke-linecap:round;stroke-linejoin:round"/>
<path d="M 157.251,90.6043 L 157.251,80.8522 161.474,78.4142 z"
    style="fill:#686868; stroke:#686868;
    stroke-width:1.0;
    stroke-linecap:round;stroke-linejoin:round"/>
<line x1="157.251" y1="80.8522" x2="157.251" y2="90.6043" stroke="#191919" stroke-width="1px" />
<line x1="169.919" y1="83.2903" x2="169.919" y2="102.794" stroke="#191919" stroke-width="1px" />
<line x1="174.141" y1="114.984" x2="178.364" y2="107.67" stroke="#191919" stroke-width="1px" />
<path d="M 169.919,102.794 L 169.919,83.2903 178.364,78.4142 z"
    style="fill:#686868; stroke:#686868;
    stroke-width:1.0;
    stroke-linecap:round;stroke-linejoin:round"/>
<line x1="140.361" y1="110.108" x2="140.361" y2="114.984" stroke="#191919" stroke-width="1px" />
<line x1="157.251" y1="80.8522" x2="161.474" y2="78.4142" stroke="#191919" stroke-width="1px" />
<path d="M 169.919,83.2903 L 161.474,78.4142 178.364,78.4142 z"
    style="fill:#8f8f8f; stroke:#8f8f8f;
    stroke-width:1.0;
    stroke-linecap:round;stroke-linejoin:round"/>
<line x1="161.474" y1="78.4142" x2="169.919" y2="83.2903" stroke="#191919" stroke-width="1px" />
<line x1="169.919" y1="83.2903" x2="178.364" y2="78.4142" stroke="#191919" stroke-width="1px" />
<path d="M 157.251,124.737 L 140.361,114.984 174.141,114.984 z"
    style="fill:#8f8f8f; stroke:#8f8f8f;
    stroke-width:1.0;
    stroke-linecap:round;stroke-linejoin:round"/>
<line x1="157.251" y1="124.737" x2="140.361" y2="114.984" stroke="#191919" stroke-width="1px" />
<line x1="174.141" y1="114.984" x2="157.251" y2="124.737" stroke="#191919" stroke-width="1px" />
<path d="M 157.251,124.737 L 157.251,129.613 140.361,114.984 z"
    style="fill:#858585; stroke:#858585;
    stroke-width:1.0;
    stroke-linecap:round;stroke-linejoin:round"/>
<path d="M 157.251,124.737 L 174.141,114.984 157.251,129.613 z"
    style="fill:#686868; stroke:#686868;
    stroke-width:1.0;
    stroke-linecap:round;stroke-linejoin:round"/>
<line x1="157.251" y1="129.613" x2="157.251" y2="124.737" stroke="#191919" stroke-width="1px" />
</g>
</svg>